<svg width="22" height="36" viewBox="0 0 22 36" fill="none" xmlns="http://www.w3.org/2000/svg">
<path d="M12.8 26.8889H9.2V12.6667H12.8V26.8889ZM20 32.2222V7.33333C20 6.86184 19.8104 6.40965 19.4728 6.07625C19.1352 5.74286 18.6774 5.55556 18.2 5.55556H3.8C3.32261 5.55556 2.86477 5.74286 2.52721 6.07625C2.18964 6.40965 2 6.86184 2 7.33333V32.2222C2 32.6937 2.18964 33.1459 2.52721 33.4793C2.86477 33.8127 3.32261 34 3.8 34H18.2C18.6774 34 19.1352 33.8127 19.4728 33.4793C19.8104 33.1459 20 32.6937 20 32.2222ZM14.6 5.55556H7.4V2H14.6V5.55556Z" stroke="black" stroke-width="4" stroke-linecap="round" stroke-linejoin="round"/>
</svg>
